name ./resultDataOpenSim/trcMotMarkerGrf/sub09/grf-04-07.mot
datacolumns 19
datarows 17
range 0.97600000 1.04000000
endheader

                time	     ground_force_vx	     ground_force_vy	     ground_force_vz	     ground_force_px	     ground_force_py	     ground_force_pz	   l_ground_force_vx	   l_ground_force_vy	   l_ground_force_vz	   l_ground_force_px	   l_ground_force_py	   l_ground_force_pz	     ground_torque_x	     ground_torque_y	     ground_torque_z	   l_ground_torque_x	   l_ground_torque_y	   l_ground_torque_z	
          0.97600000	          0.00000000	          0.00000000	          0.00000000	          0.00000000	          0.00000000	          0.00000000	        -15.47955999	        407.84001737	         17.32786934	          0.14124533	         -0.07500000	         -0.02519962	          0.00000000	          0.00000000	          0.00000000	          0.00000000	         -0.97873113	          0.00000000	
          0.98000000	          0.00000000	          0.00000000	          0.00000000	          0.00000000	          0.00000000	          0.00000000	        -14.49661661	        409.95590559	         17.47898579	          0.14143504	         -0.07500000	         -0.02515630	          0.00000000	          0.00000000	          0.00000000	          0.00000000	         -1.08551365	          0.00000000	
          0.98400000	          0.00000000	          0.00000000	          0.00000000	          0.00000000	          0.00000000	          0.00000000	        -13.61843065	        412.46603897	         17.63774371	          0.14165282	         -0.07500000	         -0.02513374	          0.00000000	          0.00000000	          0.00000000	          0.00000000	         -1.20897455	          0.00000000	
          0.98800000	          0.00000000	          0.00000000	          0.00000000	          0.00000000	          0.00000000	          0.00000000	        -12.77907128	        415.34511883	         17.84873344	          0.14191221	         -0.07500000	         -0.02512659	          0.00000000	          0.00000000	          0.00000000	          0.00000000	         -1.34643759	          0.00000000	
          0.99200000	          0.00000000	          0.00000000	          0.00000000	          0.00000000	          0.00000000	          0.00000000	        -11.89399684	        418.63825480	         18.13100839	          0.14221114	         -0.07500000	         -0.02511716	          0.00000000	          0.00000000	          0.00000000	          0.00000000	         -1.49462379	          0.00000000	
          0.99600000	          0.00000000	          0.00000000	          0.00000000	          0.00000000	          0.00000000	          0.00000000	        -10.88040147	        422.43142708	         18.47436253	          0.14252814	         -0.07500000	         -0.02508662	          0.00000000	          0.00000000	          0.00000000	          0.00000000	         -1.65094701	          0.00000000	
          1.00000000	          0.00000000	          0.00000000	          0.00000000	          0.00000000	          0.00000000	          0.00000000	         -9.67186817	        426.80168665	         18.85002678	          0.14281871	         -0.07500000	         -0.02502584	          0.00000000	          0.00000000	          0.00000000	          0.00000000	         -1.81441372	          0.00000000	
          1.00400000	          0.00000000	          0.00000000	          0.00000000	          0.00000000	          0.00000000	          0.00000000	         -8.24138133	        431.79966572	         19.22597183	          0.14303454	         -0.07500000	         -0.02493707	          0.00000000	          0.00000000	          0.00000000	          0.00000000	         -1.98587962	          0.00000000	
          1.00800000	          0.00000000	          0.00000000	          0.00000000	          0.00000000	          0.00000000	          0.00000000	         -6.59300423	        437.46313085	         19.57493478	          0.14317401	         -0.07500000	         -0.02482393	          0.00000000	          0.00000000	          0.00000000	          0.00000000	         -2.16764884	          0.00000000	
          1.01200000	          0.00000000	          0.00000000	          0.00000000	          0.00000000	          0.00000000	          0.00000000	         -4.71468693	        443.81985997	         19.86823558	          0.14327543	         -0.07500000	         -0.02466203	          0.00000000	          0.00000000	          0.00000000	          0.00000000	         -2.36261071	          0.00000000	
          1.01600000	          0.00000000	          0.00000000	          0.00000000	          0.00000000	          0.00000000	          0.00000000	         -2.56159131	        450.85477767	         20.07572811	          0.14334943	         -0.07500000	         -0.02442059	          0.00000000	          0.00000000	          0.00000000	          0.00000000	         -2.57327559	          0.00000000	
          1.02000000	          0.00000000	          0.00000000	          0.00000000	          0.00000000	          0.00000000	          0.00000000	         -0.08508205	        458.48590612	         20.18553926	          0.14341094	         -0.07500000	         -0.02410591	          0.00000000	          0.00000000	          0.00000000	          0.00000000	         -2.80112042	          0.00000000	
          1.02400000	          0.00000000	          0.00000000	          0.00000000	          0.00000000	          0.00000000	          0.00000000	          2.74659567	        466.58964056	         20.21342905	          0.14353199	         -0.07500000	         -0.02373421	          0.00000000	          0.00000000	          0.00000000	          0.00000000	         -3.04653479	          0.00000000	
          1.02800000	          0.00000000	          0.00000000	          0.00000000	          0.00000000	          0.00000000	          0.00000000	          5.95251265	        475.02832806	         20.18605148	          0.14378938	         -0.07500000	         -0.02331023	          0.00000000	          0.00000000	          0.00000000	          0.00000000	         -3.30935858	          0.00000000	
          1.03200000	          0.00000000	          0.00000000	          0.00000000	          0.00000000	          0.00000000	          0.00000000	          9.54104873	        483.65538580	         20.12367138	          0.14421239	         -0.07500000	         -0.02285837	          0.00000000	          0.00000000	          0.00000000	          0.00000000	         -3.58963573	          0.00000000	
          1.03600000	          0.00000000	          0.00000000	          0.00000000	          0.00000000	          0.00000000	          0.00000000	         13.50303120	        492.35241778	         20.03654651	          0.14477698	         -0.07500000	         -0.02241748	          0.00000000	          0.00000000	          0.00000000	          0.00000000	         -3.88803018	          0.00000000	
          1.04000000	          0.00000000	          0.00000000	          0.00000000	          0.00000000	          0.00000000	          0.00000000	         17.81198058	        501.08789490	         19.92514696	          0.14540963	         -0.07500000	         -0.02202604	          0.00000000	          0.00000000	          0.00000000	          0.00000000	         -4.20550121	          0.00000000	
